<svg width="40" height="41" viewBox="0 0 40 41" fill="none" xmlns="http://www.w3.org/2000/svg">
<g clip-path="url(#clip0_1_2232)">
<rect y="0.5" width="40" height="40" fill="#F7931A"/>
<path d="M29.4844 18.0419C29.8819 15.3806 27.8556 13.95 25.085 12.9956L25.9838 9.39063L23.7888 8.84375L22.9138 12.3538C22.3375 12.21 21.745 12.0744 21.1563 11.94L22.0375 8.40688L19.8444 7.86L18.945 11.4638C18.4675 11.355 17.9988 11.2475 17.5438 11.1344L17.5463 11.1231L14.52 10.3675L13.9363 12.7113C13.9363 12.7113 15.5644 13.0844 15.53 13.1075C16.4188 13.3294 16.58 13.9175 16.5525 14.3837L15.5288 18.4906C15.59 18.5063 15.6694 18.5287 15.7569 18.5637L15.5256 18.5062L14.09 24.2594C13.9813 24.5294 13.7056 24.9344 13.0844 24.7806C13.1063 24.8125 11.4894 24.3825 11.4894 24.3825L10.4 26.895L13.2563 27.6069C13.7875 27.74 14.3081 27.8794 14.82 28.0106L13.9119 31.6575L16.1038 32.2044L17.0038 28.5969C17.6019 28.7594 18.1831 28.9094 18.7519 29.0506L17.8556 32.6413L20.05 33.1881L20.9581 29.5488C24.7 30.2569 27.5144 29.9713 28.6975 26.5875C29.6519 23.8625 28.6506 22.2906 26.6819 21.265C28.1156 20.9331 29.1956 19.99 29.4838 18.0419H29.4844ZM24.47 25.0725C23.7913 27.7975 19.2038 26.325 17.7156 25.955L18.9206 21.1244C20.4081 21.4956 25.1775 22.2306 24.4706 25.0725H24.47ZM25.1481 18.0025C24.5294 20.4813 20.7106 19.2219 19.4713 18.9131L20.5638 14.5319C21.8031 14.8406 25.7931 15.4169 25.1481 18.0025Z" fill="white"/>
</g>
<defs>
<clipPath id="clip0_1_2232">
<rect y="0.5" width="40" height="40" rx="20" fill="white"/>
</clipPath>
</defs>
</svg>
