<svg width="25" height="24" viewBox="0 0 25 24" fill="none" xmlns="http://www.w3.org/2000/svg">
    <path fill-rule="evenodd" clip-rule="evenodd"
        d="M10.6652 5.30435C10.6652 4.51194 11.3076 3.86957 12.1 3.86957C12.8924 3.86957 13.5348 4.51194 13.5348 5.30435C13.5348 6.09676 12.8924 6.73913 12.1 6.73913C11.3076 6.73913 10.6652 6.09676 10.6652 5.30435ZM15.6416 7.75138C14.8647 8.8736 13.5682 9.6087 12.1 9.6087C10.6318 9.6087 9.33529 8.8736 8.55842 7.75138C6.66442 8.93412 5.40435 11.0373 5.40435 13.4348C7.78158 13.4348 9.7087 15.3619 9.7087 17.7391C9.7087 18.3774 9.56977 18.9833 9.3205 19.5281C10.1671 19.9149 11.1084 20.1304 12.1 20.1304C13.0916 20.1304 14.0329 19.9149 14.8795 19.5281C14.6302 18.9833 14.4913 18.3774 14.4913 17.7391C14.4913 15.3619 16.4184 13.4348 18.7957 13.4348C18.7957 11.0373 17.5356 8.93412 15.6416 7.75138ZM21.6087 14.4811C21.646 14.1374 21.6652 13.7883 21.6652 13.4348C21.6652 9.69206 19.5156 6.45141 16.3837 4.88006C16.1706 2.70199 14.3341 1 12.1 1C9.86595 1 8.02942 2.70199 7.81631 4.88006C4.68437 6.45141 2.53479 9.69206 2.53479 13.4348C2.53479 13.7883 2.55397 14.1374 2.59136 14.4811C1.67799 15.2704 1.10001 16.4372 1.10001 17.7391C1.10001 20.1164 3.02713 22.0435 5.40435 22.0435C6.0456 22.0435 6.65408 21.9033 7.20084 21.6518C8.63377 22.508 10.3094 23 12.1 23C13.8906 23 15.5662 22.508 16.9992 21.6518C17.5459 21.9033 18.1544 22.0435 18.7957 22.0435C21.1729 22.0435 23.1 20.1164 23.1 17.7391C23.1 16.4372 22.522 15.2704 21.6087 14.4811ZM5.40435 16.3043C4.61195 16.3043 3.96957 16.9467 3.96957 17.7391C3.96957 18.5315 4.61195 19.1739 5.40435 19.1739C6.19676 19.1739 6.83914 18.5315 6.83914 17.7391C6.83914 16.9467 6.19676 16.3043 5.40435 16.3043ZM17.3609 17.7391C17.3609 16.9467 18.0033 16.3043 18.7957 16.3043C19.5881 16.3043 20.2304 16.9467 20.2304 17.7391C20.2304 18.5315 19.5881 19.1739 18.7957 19.1739C18.0033 19.1739 17.3609 18.5315 17.3609 17.7391Z"
        fill="black" fill-opacity="0.32" />
</svg>