<svg width="25" height="24" viewBox="0 0 25 24" fill="none" xmlns="http://www.w3.org/2000/svg">
    <path fill-rule="evenodd" clip-rule="evenodd"
        d="M1.90002 12C1.90002 5.9 6.80002 1 12.9 1C19 1 23.9 5.9 23.9 12C23.9 18.1 19 23 12.9 23C6.80002 23 1.90002 18.1 1.90002 12ZM7.90002 17L14.7 13.8L17.9 7L11.1 10.2L7.90002 17ZM14.4 12C14.4 12.8284 13.7285 13.5 12.9 13.5C12.0716 13.5 11.4 12.8284 11.4 12C11.4 11.1716 12.0716 10.5 12.9 10.5C13.7285 10.5 14.4 11.1716 14.4 12Z"
        fill="#ADADAD" />
</svg>