<svg width="24" height="24" viewBox="0 0 24 24" fill="none" xmlns="http://www.w3.org/2000/svg">
<path d="M17.625 21H5.25C4.65326 21 4.08097 20.7629 3.65901 20.341C3.23705 19.919 3 19.3467 3 18.75V6.375C3 5.77826 3.23705 5.20597 3.65901 4.78401C4.08097 4.36205 4.65326 4.125 5.25 4.125H9.75V6.375H5.25V18.75H17.625V14.25H19.875V18.75C19.875 19.3467 19.6379 19.919 19.216 20.341C18.794 20.7629 18.2217 21 17.625 21ZM11.6625 13.9204L10.0763 12.3296L17.1559 5.25H13.125V3H21V10.875H18.75V6.84188L11.6625 13.9204Z" fill="black"/>
</svg>
