<svg width="25" height="24" viewBox="0 0 25 24" fill="none" xmlns="http://www.w3.org/2000/svg">
    <path fill-rule="evenodd" clip-rule="evenodd"
        d="M3.69998 1.5H2.19998V3V6.5V8V11V12.5V21V22.5H3.69998H21.7H23.2V21V8V6.5H21.7H5.19998V4.5H16.2H17.7V1.5H16.2H3.69998ZM5.19998 9.5V11V12.5V19.5H20.2V9.5H5.19998ZM18.7 14.5C18.7 15.3284 18.0284 16 17.2 16C16.3716 16 15.7 15.3284 15.7 14.5C15.7 13.6716 16.3716 13 17.2 13C18.0284 13 18.7 13.6716 18.7 14.5Z"
        fill="black" fill-opacity="0.32" />
</svg>