<svg width="24" height="24" viewBox="0 0 24 24" fill="none" xmlns="http://www.w3.org/2000/svg">
<path d="M23.0001 20.8611L18.5187 16.3796C19.6391 14.75 20.3518 12.8148 20.3518 10.6759C20.3518 5.37965 15.9722 1 10.6759 1C5.37963 1 1 5.37965 1 10.6759C1 15.9722 5.37963 20.3519 10.6759 20.3519C12.8148 20.3519 14.7501 19.6389 16.3797 18.5185L20.8611 23L23.0001 20.8611ZM4.05555 10.7778C4.05555 7.11112 7.00926 4.15741 10.6759 4.15741C14.3426 4.15741 17.2963 7.11112 17.2963 10.7778C17.2963 14.4444 14.3426 17.3981 10.6759 17.3981C7.00926 17.3981 4.05555 14.4444 4.05555 10.7778Z" fill="black" fill-opacity="0.95"/>
</svg>
