<svg width="40" height="41" viewBox="0 0 40 41" fill="none" xmlns="http://www.w3.org/2000/svg">
<g clip-path="url(#clip0_1_2240)">
<rect y="0.5" width="40" height="40" fill="#8247E5"/>
<path d="M25.2267 17.0333C24.8533 16.82 24.3733 16.82 23.9467 17.0333L20.96 18.7933L18.9333 19.9133L16 21.6733C15.6267 21.8867 15.1467 21.8867 14.72 21.6733L12.4267 20.2867C12.0533 20.0733 11.7867 19.6467 11.7867 19.1667V16.5C11.7867 16.0733 12 15.6467 12.4267 15.38L14.72 14.0467C15.0933 13.8333 15.5733 13.8333 16 14.0467L18.2933 15.4333C18.6667 15.6467 18.9333 16.0733 18.9333 16.5533V18.3133L20.96 17.14V15.3267C20.96 14.9 20.7467 14.4733 20.32 14.2067L16.0533 11.7C15.68 11.4867 15.2 11.4867 14.7733 11.7L10.4 14.26C9.97334 14.4733 9.76001 14.9 9.76001 15.3267V20.34C9.76001 20.7667 9.97334 21.1933 10.4 21.46L14.72 23.9667C15.0933 24.18 15.5733 24.18 16 23.9667L18.9333 22.26L20.96 21.0867L23.8933 19.38C24.2667 19.1667 24.7467 19.1667 25.1733 19.38L27.4667 20.7133C27.84 20.9267 28.1067 21.3533 28.1067 21.8333V24.5C28.1067 24.9267 27.8933 25.3533 27.4667 25.62L25.2267 26.9533C24.8533 27.1667 24.3733 27.1667 23.9467 26.9533L21.6533 25.62C21.28 25.4067 21.0133 24.98 21.0133 24.5V22.7933L18.9867 23.9667V25.7267C18.9867 26.1533 19.2 26.58 19.6267 26.8467L23.9467 29.3533C24.32 29.5667 24.8 29.5667 25.2267 29.3533L29.5467 26.8467C29.92 26.6333 30.1867 26.2067 30.1867 25.7267V20.66C30.1867 20.2333 29.9733 19.8067 29.5467 19.54L25.2267 17.0333Z" fill="white"/>
</g>
<defs>
<clipPath id="clip0_1_2240">
<rect y="0.5" width="40" height="40" rx="20" fill="white"/>
</clipPath>
</defs>
</svg>
