<svg width="40" height="40" viewBox="0 0 40 40" fill="none" xmlns="http://www.w3.org/2000/svg">
    <g clip-path="url(#clip0_22_86)">
        <rect width="40" height="40" fill="#3EC1BD" />
        <g clip-path="url(#clip1_22_86)">
            <path
                d="M11.0213 25.4142C11.1811 25.2547 11.4008 25.1616 11.6339 25.1616H32.7673C33.1534 25.1616 33.3465 25.6269 33.0735 25.8995L28.8988 30.0674C28.739 30.227 28.5193 30.32 28.2862 30.32H7.15283C6.76665 30.32 6.57356 29.8547 6.84655 29.5822L11.0213 25.4142Z"
                fill="white" />
            <path
                d="M11.0213 9.85261C11.1878 9.69307 11.4075 9.60001 11.6339 9.60001H32.7673C33.1534 9.60001 33.3465 10.0653 33.0735 10.3379L28.8988 14.5058C28.739 14.6653 28.5193 14.7584 28.2862 14.7584H7.15283C6.76665 14.7584 6.57356 14.2931 6.84655 14.0205L11.0213 9.85261Z"
                fill="white" />
            <path
                d="M28.8988 17.5836C28.739 17.424 28.5193 17.331 28.2862 17.331H7.15283C6.76665 17.331 6.57356 17.7963 6.84655 18.0688L11.0213 22.2368C11.1811 22.3963 11.4008 22.4894 11.6339 22.4894H32.7673C33.1534 22.4894 33.3465 22.024 33.0735 21.7515L28.8988 17.5836Z"
                fill="white" />
        </g>
    </g>
    <defs>
        <clipPath id="clip0_22_86">
            <rect width="40" height="40" rx="20" fill="white" />
        </clipPath>
        <clipPath id="clip1_22_86">
            <rect width="26.48" height="20.72" fill="white" transform="translate(6.72 9.60001)" />
        </clipPath>
    </defs>
</svg>