<svg width="25" height="24" viewBox="0 0 25 24" fill="none" xmlns="http://www.w3.org/2000/svg">
    <path fill-rule="evenodd" clip-rule="evenodd"
        d="M1.80002 1.5H3.30002H21.3H22.8V3V21V23.3081L20.6908 22.3707L16.8 20.6415L12.9092 22.3707L12.3 22.6415L11.6908 22.3707L7.80002 20.6415L3.90923 22.3707L1.80002 23.3081V21V3V1.5ZM4.80002 4.5V18.6919L7.19081 17.6293L7.80002 17.3585L8.40923 17.6293L12.3 19.3585L16.1908 17.6293L16.8 17.3585L17.4092 17.6293L19.8 18.6919V4.5H4.80002ZM11.3 10.5H7.30002V7.5H11.3V10.5ZM7.30002 14.5H17.3V11.5H7.30002V14.5Z"
        fill="black" fill-opacity="0.32" />
</svg>