<svg width="40" height="40" viewBox="0 0 40 40" fill="none" xmlns="http://www.w3.org/2000/svg">
<g clip-path="url(#clip0_1_403)">
<rect width="40" height="40" fill="#0063FF"/>
</g>
<path d="M27.9949 23.804C27.7629 20.8656 22.5994 19.53 22.1052 19.3928C22.085 19.3856 22.085 19.3712 22.0951 19.3567L27.42 15.5304V15.1188C27.42 15.0539 27.3393 14.9961 27.2486 14.9961H17.4358V12.6931V12L13.8153 12.5415V12.9313H14.017C14.017 12.9313 14.9045 12.9313 14.9045 13.5666V14.9889H12.1009C12.0504 14.9889 12 15.025 12 15.0611V15.9635H14.9146C14.9146 15.9635 14.9146 16.9237 14.9146 18.0428V20.8656C14.9146 22.4034 16.2962 23.4719 18.7166 23.3275C19.231 23.2986 19.705 23.1542 20.1084 22.9665C20.2899 22.8799 20.4008 22.7427 20.4008 22.5839V22.1001C19.6142 22.4756 18.9486 22.4539 18.9486 22.4539C17.4157 22.4539 17.4459 21.0605 17.4459 21.0605V15.9635H24.5054L19.4226 19.6311C19.4125 20.1148 19.4024 20.4902 19.4024 20.4974C19.4024 20.5118 19.4125 20.5191 19.4327 20.5191C24.0919 21.0822 25.3526 23.2408 25.3526 23.8689C25.3526 23.8689 25.8568 26.9228 21.5909 27.1322C21.5909 27.1322 18.7973 27.2188 18.3031 26.4174C18.283 26.3885 18.3031 26.3597 18.3435 26.3452C18.8074 26.1936 19.12 25.8976 19.12 25.5005C19.12 24.9085 18.6158 24.4248 17.5568 24.4248C16.6996 24.4248 15.9937 24.9085 15.9937 25.5005C15.9937 25.5005 15.5903 28.0707 21.5808 27.9985C28.4184 27.9119 27.9949 23.804 27.9949 23.804Z" fill="white"/>
<defs>
<clipPath id="clip0_1_403">
<rect width="40" height="40" rx="20" fill="white"/>
</clipPath>
</defs>
</svg>
